<svg width="21" height="11" viewBox="0 0 21 11" fill="none" xmlns="http://www.w3.org/2000/svg">
<path d="M1.77057 0.295607C1.67039 0.201179 1.55253 0.12736 1.42374 0.0783614C1.29496 0.0293617 1.15775 0.00614257 1.01996 0.0100297C0.882178 0.0139179 0.746508 0.044836 0.620702 0.101018C0.494896 0.157201 0.381416 0.237548 0.286743 0.337472C0.192069 0.437396 0.118056 0.554941 0.0689286 0.683394C0.0198011 0.811848 -0.00347846 0.948694 0.000419322 1.08612C0.0043171 1.22355 0.0353157 1.35886 0.0916453 1.48434C0.147975 1.60982 0.228532 1.723 0.328718 1.81743L9.77318 10.7139C9.96801 10.8976 10.226 11 10.4941 11C10.7622 11 11.0202 10.8976 11.215 10.7139L20.6605 1.81743C20.7629 1.72362 20.8456 1.61047 20.9037 1.48453C20.9619 1.35859 20.9944 1.22238 20.9993 1.08381C21.0043 0.945237 20.9816 0.80707 20.9325 0.677331C20.8834 0.547592 20.809 0.428867 20.7136 0.328054C20.6181 0.227241 20.5036 0.146348 20.3765 0.0900736C20.2495 0.0337992 20.1125 0.00326641 19.9735 0.000247082C19.8345 -0.00277129 19.6963 0.021783 19.5669 0.072487C19.4375 0.123191 19.3195 0.199032 19.2197 0.295606L10.4941 8.51386L1.77057 0.295607Z" fill="#ECB31D"/>
</svg>
