<svg width="34" height="34" viewBox="0 0 34 34" fill="none" xmlns="http://www.w3.org/2000/svg">
<path fill-rule="evenodd" clip-rule="evenodd" d="M2.80233 16.7593C2.80233 20.5839 4.29815 24.2519 6.96073 26.9563C9.62331 29.6607 13.2345 31.18 17 31.18C20.7655 31.18 24.3767 29.6607 27.0393 26.9563C29.7019 24.2519 31.1977 20.5839 31.1977 16.7593C31.1977 12.9346 29.7019 9.26665 27.0393 6.56223C24.3767 3.85781 20.7655 2.33848 17 2.33848C13.2345 2.33848 9.62331 3.85781 6.96073 6.56223C4.29815 9.26665 2.80232 12.9346 2.80233 16.7593ZM17 33.5186C7.8874 33.5186 0.5 26.0151 0.499999 16.7593C0.499999 7.50346 7.88739 -2.70309e-05 17 -2.74355e-05C26.1126 -2.784e-05 33.5 7.50346 33.5 16.7593C33.5 26.0151 26.1126 33.5186 17 33.5186ZM9.7093 16.7593C9.7093 16.4492 9.83058 16.1518 10.0465 15.9325C10.2624 15.7132 10.5552 15.59 10.8605 15.59L20.3614 15.59L17.7214 12.9085C17.6083 12.8015 17.5176 12.6724 17.4547 12.529C17.3917 12.3855 17.3579 12.2307 17.3552 12.0737C17.3525 11.9167 17.3809 11.7608 17.4388 11.6152C17.4967 11.4696 17.5829 11.3373 17.6922 11.2263C17.8015 11.1153 17.9317 11.0277 18.075 10.9689C18.2184 10.9101 18.3719 10.8812 18.5265 10.884C18.681 10.8868 18.8335 10.9211 18.9747 10.9851C19.1159 11.049 19.243 11.1411 19.3484 11.256L23.953 15.933C24.1686 16.1522 24.2897 16.4494 24.2897 16.7593C24.2897 17.0691 24.1686 17.3663 23.953 17.5855L19.3484 22.2625C19.243 22.3774 19.1159 22.4696 18.9747 22.5335C18.8335 22.5974 18.681 22.6317 18.5265 22.6345C18.3719 22.6373 18.2184 22.6084 18.075 22.5496C17.9317 22.4908 17.8015 22.4033 17.6922 22.2922C17.5829 22.1812 17.4967 22.0489 17.4388 21.9033C17.3809 21.7578 17.3525 21.6018 17.3552 21.4448C17.3579 21.2878 17.3917 21.133 17.4547 20.9896C17.5176 20.8461 17.6083 20.717 17.7214 20.61L20.3614 17.9285L10.8605 17.9285C10.5552 17.9285 10.2624 17.8053 10.0465 17.586C9.83058 17.3668 9.7093 17.0694 9.7093 16.7593Z" fill="#128C33"/>
</svg>
