<svg width="40" height="40" viewBox="0 0 40 40" fill="none" xmlns="http://www.w3.org/2000/svg">
<path fill-rule="evenodd" clip-rule="evenodd" d="M3.42823 19.9998C3.42823 24.3928 5.17336 28.6059 8.2797 31.7122C11.386 34.8186 15.5992 36.5637 19.9922 36.5637C24.3852 36.5637 28.5983 34.8186 31.7047 31.7122C34.811 28.6059 36.5561 24.3928 36.5561 19.9998C36.5561 15.6067 34.811 11.3936 31.7047 8.28728C28.5983 5.18093 24.3852 3.43581 19.9922 3.43581C15.5992 3.43581 11.386 5.18093 8.2797 8.28728C5.17336 11.3936 3.42823 15.6067 3.42823 19.9998ZM19.9922 39.2498C9.36082 39.2498 0.742187 30.6311 0.742187 19.9998C0.742186 9.36839 9.36081 0.749759 19.9922 0.749759C30.6236 0.749758 39.2422 9.36839 39.2422 19.9998C39.2422 30.6311 30.6236 39.2498 19.9922 39.2498ZM11.4864 19.9998C11.4864 19.6436 11.6279 19.302 11.8797 19.0501C12.1316 18.7982 12.4732 18.6567 12.8294 18.6567L23.9138 18.6567L20.8338 15.5767C20.7019 15.4538 20.596 15.3055 20.5226 15.1408C20.4492 14.976 20.4098 14.7982 20.4066 14.6179C20.4034 14.4375 20.4366 14.2584 20.5041 14.0912C20.5717 13.9239 20.6722 13.772 20.7997 13.6445C20.9273 13.517 21.0792 13.4164 21.2464 13.3489C21.4136 13.2813 21.5927 13.2482 21.7731 13.2513C21.9534 13.2545 22.1312 13.294 22.296 13.3674C22.4607 13.4408 22.609 13.5466 22.732 13.6786L28.1041 19.0507C28.3556 19.3025 28.4968 19.6439 28.4968 19.9998C28.4968 20.3557 28.3556 20.697 28.1041 20.9488L22.732 26.3209C22.609 26.4529 22.4607 26.5587 22.296 26.6321C22.1312 26.7055 21.9534 26.745 21.7731 26.7482C21.5927 26.7513 21.4136 26.7182 21.2464 26.6506C21.0792 26.5831 20.9273 26.4825 20.7997 26.355C20.6722 26.2275 20.5717 26.0756 20.5041 25.9083C20.4366 25.7411 20.4034 25.562 20.4066 25.3817C20.4098 25.2013 20.4492 25.0235 20.5226 24.8587C20.596 24.694 20.7019 24.5457 20.8338 24.4228L23.9138 21.3428L12.8294 21.3428C12.4732 21.3428 12.1316 21.2013 11.8797 20.9494C11.6279 20.6976 11.4864 20.3559 11.4864 19.9998Z" fill="white"/>
</svg>
