<svg width="93" height="81" viewBox="0 0 93 81" fill="none" xmlns="http://www.w3.org/2000/svg">
<path d="M42.8516 80.082H0.371094V47.3672C0.371094 35.3229 2.8776 25.8177 7.89062 18.8516C12.9036 11.8854 21.4974 5.73307 33.6719 0.394531L42.8516 17.7773C35.3646 21.293 30.1888 24.8086 27.3242 28.3242C24.4596 31.7747 22.8646 35.8763 22.5391 40.6289H42.8516V80.082ZM92.3633 80.082H49.8828V47.3672C49.8828 35.3229 52.3893 25.8177 57.4023 18.8516C62.4154 11.8854 71.0091 5.73307 83.1836 0.394531L92.3633 17.7773C84.8763 21.293 79.7005 24.8086 76.8359 28.3242C73.9714 31.7747 72.3763 35.8763 72.0508 40.6289H92.3633V80.082Z" fill="#128C33"/>
</svg>
