<svg width="38" height="30" viewBox="0 0 38 30" fill="none" xmlns="http://www.w3.org/2000/svg">
<path d="M34.2 0H3.8C1.71 0 0 1.6875 0 3.75V26.25C0 28.3125 1.71 30 3.8 30H34.2C36.29 30 38 28.3125 38 26.25V3.75C38 1.6875 36.29 0 34.2 0ZM33.44 7.96875L21.014 15.6375C19.779 16.4062 18.221 16.4062 16.986 15.6375L4.56 7.96875C4.36948 7.86321 4.20265 7.72061 4.06959 7.5496C3.93653 7.37859 3.84002 7.18271 3.78589 6.97382C3.73177 6.76493 3.72116 6.54738 3.7547 6.33433C3.78824 6.12127 3.86524 5.91715 3.98103 5.73431C4.09683 5.55148 4.24902 5.39373 4.42838 5.27062C4.60774 5.1475 4.81056 5.06158 5.02454 5.01806C5.23853 4.97454 5.45924 4.97431 5.67331 5.0174C5.88739 5.06049 6.09038 5.146 6.27 5.26875L19 13.125L31.73 5.26875C31.9096 5.146 32.1126 5.06049 32.3267 5.0174C32.5408 4.97431 32.7615 4.97454 32.9755 5.01806C33.1894 5.06158 33.3923 5.1475 33.5716 5.27062C33.751 5.39373 33.9032 5.55148 34.019 5.73431C34.1348 5.91715 34.2118 6.12127 34.2453 6.33433C34.2788 6.54738 34.2682 6.76493 34.2141 6.97382C34.16 7.18271 34.0635 7.37859 33.9304 7.5496C33.7974 7.72061 33.6305 7.86321 33.44 7.96875Z" fill="white"/>
</svg>
