<svg width="30" height="30" viewBox="0 0 30 30" fill="none" xmlns="http://www.w3.org/2000/svg">
<path d="M16.5077 0.333008C18.1576 0.337408 18.9951 0.346207 19.7181 0.36674L20.0026 0.377007C20.3311 0.38874 20.6553 0.403406 21.0468 0.421006C22.6073 0.494337 23.672 0.740731 24.6063 1.10299C25.5742 1.47551 26.3896 1.98003 27.2051 2.79401C27.9511 3.52694 28.5282 4.41387 28.896 5.39289C29.2583 6.32713 29.5047 7.3919 29.578 8.95387C29.5956 9.34399 29.6103 9.66812 29.622 9.99811L29.6308 10.2826C29.6528 11.0042 29.6616 11.8417 29.6645 13.4916L29.666 14.5857V16.507C29.6696 17.5768 29.6583 18.6465 29.6323 19.716L29.6235 20.0005C29.6117 20.3305 29.5971 20.6546 29.5795 21.0448C29.5061 22.6067 29.2568 23.67 28.896 24.6058C28.5282 25.5848 27.9511 26.4717 27.2051 27.2046C26.4722 27.9507 25.5852 28.5278 24.6063 28.8957C23.672 29.2579 22.6073 29.5043 21.0468 29.5776L20.0026 29.6216L19.7181 29.6304C18.9951 29.651 18.1576 29.6612 16.5077 29.6642L15.4137 29.6656H13.4939C12.4237 29.6694 11.3534 29.6582 10.2835 29.6319L9.99899 29.6231C9.65084 29.6099 9.30276 29.5948 8.95478 29.5776C7.39432 29.5043 6.32958 29.2579 5.39389 28.8957C4.41543 28.5276 3.52904 27.9505 2.79656 27.2046C2.04998 26.4718 1.47238 25.5849 1.10411 24.6058C0.74186 23.6715 0.495472 22.6067 0.422143 21.0448L0.378145 20.0005L0.370812 19.716C0.343777 18.6466 0.331554 17.5768 0.334147 16.507V13.4916C0.330088 12.4219 0.340844 11.3521 0.366412 10.2826L0.376678 9.99811C0.388411 9.66812 0.403077 9.34399 0.420676 8.95387C0.494006 7.3919 0.740393 6.3286 1.10264 5.39289C1.47177 4.41347 2.05039 3.5265 2.79802 2.79401C3.53008 2.0483 4.41595 1.47122 5.39389 1.10299C6.32958 0.740731 7.39286 0.494337 8.95478 0.421006C9.34489 0.403406 9.67048 0.38874 9.99899 0.377007L10.2835 0.368207C11.3529 0.342149 12.4227 0.330904 13.4924 0.334474L16.5077 0.333008ZM15.0001 7.66616C13.0553 7.66616 11.1901 8.43876 9.81489 9.814C8.43969 11.1892 7.66711 13.0544 7.66711 14.9993C7.66711 16.9442 8.43969 18.8094 9.81489 20.1846C11.1901 21.5599 13.0553 22.3325 15.0001 22.3325C16.9449 22.3325 18.8101 21.5599 20.1853 20.1846C21.5605 18.8094 22.333 16.9442 22.333 14.9993C22.333 13.0544 21.5605 11.1892 20.1853 9.814C18.8101 8.43876 16.9449 7.66616 15.0001 7.66616ZM15.0001 10.5994C15.5779 10.5993 16.15 10.713 16.6839 10.9341C17.2177 11.1551 17.7028 11.4791 18.1114 11.8876C18.52 12.2961 18.8442 12.7811 19.0654 13.3149C19.2866 13.8487 19.4005 14.4208 19.4006 14.9986C19.4007 15.5764 19.287 16.1486 19.066 16.6824C18.8449 17.2163 18.5209 17.7014 18.1124 18.11C17.7039 18.5186 17.219 18.8428 16.6852 19.064C16.1514 19.2852 15.5793 19.3991 15.0015 19.3992C13.8346 19.3992 12.7155 18.9357 11.8904 18.1105C11.0653 17.2854 10.6018 16.1662 10.6018 14.9993C10.6018 13.8324 11.0653 12.7133 11.8904 11.8881C12.7155 11.063 13.8346 10.5994 15.0015 10.5994M22.7012 5.46622C22.2149 5.46622 21.7487 5.65937 21.4049 6.00317C21.0611 6.34698 20.8679 6.81329 20.8679 7.29951C20.8679 7.78572 21.0611 8.25203 21.4049 8.59584C21.7487 8.93965 22.2149 9.1328 22.7012 9.1328C23.1874 9.1328 23.6537 8.93965 23.9974 8.59584C24.3412 8.25203 24.5344 7.78572 24.5344 7.29951C24.5344 6.81329 24.3412 6.34698 23.9974 6.00317C23.6537 5.65937 23.1874 5.46622 22.7012 5.46622Z" fill="white"/>
</svg>
