<svg width="32" height="32" viewBox="0 0 32 32" fill="none" xmlns="http://www.w3.org/2000/svg">
<path d="M28.25 0.25C29.1783 0.25 30.0685 0.618749 30.7249 1.27513C31.3813 1.9315 31.75 2.82174 31.75 3.75V28.25C31.75 29.1783 31.3813 30.0685 30.7249 30.7249C30.0685 31.3813 29.1783 31.75 28.25 31.75H3.75C2.82174 31.75 1.9315 31.3813 1.27513 30.7249C0.618749 30.0685 0.25 29.1783 0.25 28.25V3.75C0.25 2.82174 0.618749 1.9315 1.27513 1.27513C1.9315 0.618749 2.82174 0.25 3.75 0.25H28.25ZM27.375 27.375V18.1C27.375 16.5869 26.7739 15.1359 25.704 14.066C24.6341 12.9961 23.1831 12.395 21.67 12.395C20.1825 12.395 18.45 13.305 17.61 14.67V12.7275H12.7275V27.375H17.61V18.7475C17.61 17.4 18.695 16.2975 20.0425 16.2975C20.6923 16.2975 21.3154 16.5556 21.7749 17.0151C22.2344 17.4746 22.4925 18.0977 22.4925 18.7475V27.375H27.375ZM7.04 9.98C7.81974 9.98 8.56754 9.67025 9.11889 9.11889C9.67025 8.56754 9.98 7.81974 9.98 7.04C9.98 5.4125 8.6675 4.0825 7.04 4.0825C6.25562 4.0825 5.50337 4.39409 4.94873 4.94873C4.39409 5.50337 4.0825 6.25562 4.0825 7.04C4.0825 8.6675 5.4125 9.98 7.04 9.98ZM9.4725 27.375V12.7275H4.625V27.375H9.4725Z" fill="#979797"/>
</svg>
