<svg width="28" height="28" viewBox="0 0 28 28" fill="none" xmlns="http://www.w3.org/2000/svg">
<path d="M24.3703 0.666992C25.1562 0.666992 25.9098 0.97916 26.4655 1.53482C27.0211 2.09049 27.3333 2.84413 27.3333 3.62996V24.3707C27.3333 25.1565 27.0211 25.9102 26.4655 26.4658C25.9098 27.0215 25.1562 27.3337 24.3703 27.3337H3.62959C2.84376 27.3337 2.09012 27.0215 1.53446 26.4658C0.978794 25.9102 0.666626 25.1565 0.666626 24.3707V3.62996C0.666626 2.84413 0.978794 2.09049 1.53446 1.53482C2.09012 0.97916 2.84376 0.666992 3.62959 0.666992H24.3703ZM23.6296 23.63V15.7781C23.6296 14.4972 23.1208 13.2688 22.215 12.363C21.3093 11.4573 20.0809 10.9485 18.8 10.9485C17.5407 10.9485 16.074 11.7188 15.3629 12.8744V11.23H11.2296V23.63H15.3629V16.3263C15.3629 15.1855 16.2814 14.2522 17.4222 14.2522C17.9723 14.2522 18.4998 14.4707 18.8888 14.8597C19.2777 15.2486 19.4963 15.7762 19.4963 16.3263V23.63H23.6296ZM6.41477 8.90403C7.07487 8.90403 7.70793 8.64181 8.17468 8.17505C8.64144 7.70829 8.90366 7.07523 8.90366 6.41514C8.90366 5.03736 7.79255 3.91144 6.41477 3.91144C5.75075 3.91144 5.11392 4.17522 4.64439 4.64475C4.17485 5.11429 3.91107 5.75112 3.91107 6.41514C3.91107 7.79292 5.037 8.90403 6.41477 8.90403ZM8.47403 23.63V11.23H4.37033V23.63H8.47403Z" fill="white"/>
</svg>
