<svg width="33" height="39" viewBox="0 0 33 39" fill="none" xmlns="http://www.w3.org/2000/svg">
<path d="M15.0828 38.0297L14.6136 37.708C12.2657 36.0438 10.0839 34.1512 8.09941 32.0571C4.61263 28.3566 0.703125 22.8097 0.703125 16.2628C0.703125 8.20851 7.15625 0.176483 16.5855 0.176483C26.0147 0.176483 32.4678 8.20851 32.4678 16.2653C32.4678 22.8122 28.5583 28.3591 25.0715 32.0546C23.087 34.1487 20.9053 36.0413 18.5573 37.7055C18.3586 37.8457 18.2022 37.953 18.0882 38.0273C17.5922 38.3614 17.0864 38.6782 16.5855 39C16.0846 38.6782 15.5788 38.3614 15.0828 38.0297ZM16.5855 21.2157C17.8816 21.2157 19.1246 20.6941 20.041 19.7658C20.9575 18.8374 21.4724 17.5782 21.4724 16.2653C21.4724 14.9524 20.9575 13.6932 20.041 12.7648C19.1246 11.8364 17.8816 11.3149 16.5855 11.3149C15.2894 11.3149 14.0464 11.8364 13.1299 12.7648C12.2135 13.6932 11.6986 14.9524 11.6986 16.2653C11.6986 17.5782 12.2135 18.8374 13.1299 19.7658C14.0464 20.6941 15.2894 21.2157 16.5855 21.2157Z" fill="white"/>
</svg>
