<svg width="38" height="38" viewBox="0 0 38 38" fill="none" xmlns="http://www.w3.org/2000/svg">
<path d="M7.64222 16.4456C10.6822 22.42 15.58 27.2967 21.5544 30.3578L26.1989 25.7133C26.7689 25.1433 27.6133 24.9533 28.3522 25.2067C30.7167 25.9878 33.2711 26.41 35.8889 26.41C37.05 26.41 38 27.36 38 28.5211V35.8889C38 37.05 37.05 38 35.8889 38C16.0656 38 0 21.9344 0 2.11111C0 0.95 0.95 0 2.11111 0H9.5C10.6611 0 11.6111 0.95 11.6111 2.11111C11.6111 4.75 12.0333 7.28333 12.8144 9.64778C13.0467 10.3867 12.8778 11.21 12.2867 11.8011L7.64222 16.4456Z" fill="white"/>
</svg>
