<svg width="30" height="30" viewBox="0 0 30 30" fill="none" xmlns="http://www.w3.org/2000/svg">
<path d="M15 0C23.2845 0 30 6.7155 30 15C30 23.2845 23.2845 30 15 30C12.3492 30.0046 9.7449 29.303 7.45502 27.9675L0.00602318 30L2.03402 22.548C0.697461 20.2574 -0.00462244 17.652 2.2903e-05 15C2.2903e-05 6.7155 6.71552 0 15 0ZM9.88802 7.95L9.58802 7.962C9.39406 7.97536 9.20454 8.02631 9.03002 8.112C8.86739 8.20427 8.71887 8.31945 8.58902 8.454C8.40902 8.6235 8.30702 8.7705 8.19752 8.913C7.64271 9.63435 7.34398 10.52 7.34852 11.43C7.35152 12.165 7.54352 12.8805 7.84352 13.5495C8.45702 14.9025 9.46652 16.335 10.7985 17.6625C11.1195 17.982 11.4345 18.303 11.7735 18.6015C13.4287 20.0586 15.4009 21.1095 17.5335 21.6705L18.3855 21.801C18.663 21.816 18.9405 21.795 19.2195 21.7815C19.6563 21.7585 20.0828 21.6402 20.469 21.435C20.6653 21.3335 20.857 21.2234 21.0435 21.105C21.0435 21.105 21.107 21.062 21.231 20.97C21.4335 20.82 21.558 20.7135 21.726 20.538C21.852 20.408 21.957 20.257 22.041 20.085C22.158 19.8405 22.275 19.374 22.323 18.9855C22.359 18.6885 22.3485 18.5265 22.344 18.426C22.338 18.2655 22.2045 18.099 22.059 18.0285L21.186 17.637C21.186 17.637 19.881 17.0685 19.083 16.7055C18.9995 16.6691 18.91 16.6483 18.819 16.644C18.7164 16.6333 18.6126 16.6447 18.5148 16.6776C18.417 16.7105 18.3274 16.764 18.252 16.8345C18.2445 16.8315 18.144 16.917 17.0595 18.231C16.9973 18.3146 16.9115 18.3779 16.8132 18.4126C16.7149 18.4473 16.6085 18.452 16.5075 18.426C16.4098 18.3999 16.314 18.3669 16.221 18.327C16.035 18.249 15.9705 18.219 15.843 18.165C14.9818 17.7899 14.1847 17.2822 13.4805 16.6605C13.2915 16.4955 13.116 16.3155 12.936 16.1415C12.3459 15.5763 11.8316 14.937 11.406 14.2395L11.3175 14.097C11.2549 14.0007 11.2036 13.8975 11.1645 13.7895C11.1075 13.569 11.256 13.392 11.256 13.392C11.256 13.392 11.6205 12.993 11.79 12.777C11.955 12.567 12.0945 12.363 12.1845 12.2175C12.3615 11.9325 12.417 11.64 12.324 11.4135C11.904 10.3875 11.47 9.367 11.022 8.352C10.9335 8.151 10.671 8.007 10.4325 7.9785C10.3515 7.9685 10.2705 7.9605 10.1895 7.9545C9.98812 7.94295 9.78616 7.94495 9.58502 7.9605L9.88802 7.95Z" fill="#979797"/>
</svg>
