<svg width="30" height="24" viewBox="0 0 30 24" fill="none" xmlns="http://www.w3.org/2000/svg">
<path fill-rule="evenodd" clip-rule="evenodd" d="M15 0C16.254 0 17.5402 0.0330001 18.7869 0.0870001L20.2594 0.159L21.6689 0.2445L22.9889 0.336L24.1945 0.432C25.5031 0.533837 26.7345 1.10465 27.6719 2.0439C28.6093 2.98315 29.1926 4.23059 29.319 5.5665L29.3777 6.204L29.4877 7.569C29.5904 8.9835 29.6666 10.5255 29.6666 12C29.6666 13.4745 29.5904 15.0165 29.4877 16.431L29.3777 17.796L29.319 18.4335C29.1926 19.7696 28.6091 21.0173 27.6714 21.9566C26.7336 22.8958 25.5018 23.4665 24.193 23.568L22.9904 23.6625L21.6704 23.7555L20.2594 23.841L18.7869 23.913C17.5253 23.9689 16.2627 23.9979 15 24C13.7372 23.9979 12.4746 23.9689 11.213 23.913L9.74051 23.841L8.33105 23.7555L7.01105 23.6625L5.80545 23.568C4.49691 23.4662 3.26547 22.8953 2.32804 21.9561C1.39062 21.0168 0.807326 19.7694 0.680913 18.4335L0.622246 17.796L0.512246 16.431C0.400534 14.9567 0.340851 13.4787 0.333313 12C0.333313 10.5255 0.40958 8.9835 0.512246 7.569L0.622246 6.204L0.680913 5.5665C0.807277 4.23083 1.39036 2.98358 2.32749 2.04436C3.26461 1.10514 4.4957 0.534175 5.80398 0.432L7.00811 0.336L8.32811 0.2445L9.73905 0.159L11.2116 0.0870001C12.4737 0.0310908 13.7367 0.00208437 15 0ZM12.0666 8.3625V15.6375C12.0666 16.3305 12.8 16.7625 13.3866 16.4175L19.5466 12.78C19.6807 12.7011 19.792 12.5874 19.8694 12.4505C19.9469 12.3136 19.9876 12.1582 19.9876 12C19.9876 11.8418 19.9469 11.6864 19.8694 11.5495C19.792 11.4126 19.6807 11.2989 19.5466 11.22L13.3866 7.584C13.2528 7.50498 13.101 7.4634 12.9465 7.46342C12.792 7.46345 12.6402 7.50508 12.5064 7.58414C12.3726 7.6632 12.2615 7.7769 12.1843 7.9138C12.1071 8.0507 12.0665 8.20597 12.0666 8.364V8.3625Z" fill="white"/>
</svg>
